<svg xmlns="http://www.w3.org/2000/svg" width="500.667" height="502" viewBox="0 0 500.667 502"><path d="M250.042 257.625c-5.24 0-9.5-4.262-9.5-9.5 0-5.24 4.262-9.5 9.5-9.5s9.5 4.262 9.5 9.5-4.26 9.5-9.5 9.5zm0-17c-4.136 0-7.5 3.365-7.5 7.5s3.365 7.5 7.5 7.5c4.136 0 7.5-3.364 7.5-7.5s-3.363-7.5-7.5-7.5zM148.376 247.625h89.666v1h-89.666zM262.043 247.625h89.666v1h-89.667zM249.542 236.125h1l.01-112.985 3.598 2.36L250 115l-4.15 10.5 3.703-2.37M250.542 368.53V260.124h-1v108.31l-4.01 4.377h.002-.003l-.01 6.563 4.418-3.104 4.52 3.147.01-6.604"/><path d="M489.03 247.166c-.248-63.48-25.075-123.125-69.99-168.04C374.243 34.33 314.794 9.518 251.5 9.142v-2.31h-3v2.31C185.237 9.54 125.82 34.35 81.043 79.127c-44.913 44.914-69.74 104.558-69.99 168.038H8.168v3h2.9c.524 63.076 25.317 122.3 69.977 166.96C125.82 461.9 185.238 486.708 248.5 487.105v3.392h3v-3.39c63.295-.377 122.744-25.19 167.54-69.985 44.66-44.658 69.452-103.882 69.978-166.957h2.814v-3h-2.802zm-5.012 3c-.05 5.75-.305 11.466-.763 17.142l-18.546-1.472-.08.996 18.535 1.47c-.585 6.902-1.473 13.74-2.65 20.503l-49.06-8.65-.175.984 49.07 8.65c-1.07 5.982-2.375 11.9-3.898 17.75l-18.102-4.692-.252.97 18.093 4.69c-1.767 6.668-3.813 13.247-6.16 19.71l-46.8-17.033-.343.94 46.79 17.03c-2.1 5.697-4.426 11.307-6.967 16.822l-17.05-7.784-.416.91 17.046 7.782c-2.897 6.22-6.072 12.317-9.522 18.272l-43.026-24.842-.5.865 43.02 24.84c-3.065 5.24-6.342 10.37-9.828 15.382l-15.407-10.604-.566.824 15.406 10.604c-3.918 5.58-8.1 11.005-12.53 16.268l-37.934-31.832-.643.766 37.93 31.83c-3.932 4.634-8.056 9.14-12.378 13.504l-13.3-13.087-.7.713 13.302 13.09c-.036.036-.07.073-.108.11-4.814 4.814-9.812 9.38-14.958 13.716l-31.783-37.88-.766.642 31.784 37.883c-4.73 3.95-9.584 7.705-14.567 11.246l-10.865-15.255-.814.58 10.864 15.254c-5.57 3.922-11.294 7.576-17.15 10.976l-24.733-42.842-.866.5 24.736 42.847c-5.357 3.08-10.827 5.94-16.4 8.575l-8.077-16.968-.902.43 8.074 16.957c-6.122 2.86-12.36 5.46-18.71 7.772l-16.912-46.468-.94.342 16.914 46.47c-5.833 2.097-11.758 3.95-17.756 5.576l-5-18.08-.963.266 4.997 18.072c-6.473 1.726-13.03 3.186-19.668 4.352l-8.57-48.604-.984.174 8.568 48.592c-6.127 1.05-12.317 1.854-18.56 2.418l-1.774-18.587-.996.096 1.774 18.583c-6.286.54-12.622.847-19 .886v-44.276h-3v44.274c-5.977-.038-11.917-.305-17.813-.784l1.48-18.612-.997-.08-1.48 18.602c-6.643-.568-13.23-1.414-19.745-2.532l8.566-48.578-.984-.174-8.568 48.588c-6.24-1.098-12.413-2.454-18.51-4.048l4.705-18.135-.968-.252-4.704 18.128c-6.392-1.698-12.702-3.656-18.907-5.89l16.903-46.44-.94-.343-16.902 46.44c-5.97-2.18-11.845-4.613-17.617-7.278l7.788-17.055-.908-.416-7.786 17.05c-5.944-2.774-11.776-5.8-17.48-9.08l24.717-42.81-.866-.5-24.712 42.804c-5.51-3.2-10.902-6.636-16.16-10.3l10.59-15.385-.822-.567-10.59 15.385c-5.323-3.744-10.503-7.73-15.537-11.94l31.75-37.838-.765-.643-31.75 37.837c-4.88-4.116-9.623-8.443-14.206-12.99l13.048-13.257-.713-.7-13.05 13.26c-4.627-4.628-9.022-9.424-13.208-14.358l37.884-31.787-.643-.766-37.886 31.788c-4.167-4.954-8.123-10.048-11.837-15.284l15.186-10.814-.58-.814-15.18 10.81c-3.74-5.32-7.238-10.782-10.503-16.365l42.958-24.8-.5-.865-42.963 24.804c-3.247-5.608-6.254-11.34-9.013-17.183l16.86-8.026-.43-.902-16.85 8.022c-2.737-5.863-5.23-11.835-7.465-17.907l46.713-17-.342-.94-46.723 17.005c-2.21-6.088-4.15-12.278-5.847-18.548l17.945-4.963-.267-.963-17.938 4.962c-1.655-6.225-3.067-12.526-4.206-18.902l48.986-8.636-.174-.984-48.977 8.634c-1.11-6.37-1.956-12.81-2.54-19.303l18.43-1.76-.095-.996-18.427 1.76c-.52-6.063-.817-12.174-.87-18.324l44.766.002v-3h-44.78c.026-6.196.3-12.35.8-18.46l18.44 1.465.08-.997-18.433-1.464c.555-6.46 1.37-12.863 2.444-19.2l49.16 8.67.175-.985-49.174-8.67c1.116-6.417 2.505-12.76 4.144-19.025l17.964 4.66.25-.97-17.957-4.657c1.666-6.26 3.578-12.438 5.755-18.518l47.068 17.134.342-.94-47.068-17.133c2.213-6.094 4.69-12.087 7.41-17.975l16.89 7.712.414-.91-16.888-7.71c2.74-5.867 5.722-11.624 8.954-17.255l43.435 25.08.5-.865-43.43-25.078c3.232-5.58 6.703-11.037 10.41-16.356l15.237 10.488.567-.823-15.237-10.49c3.725-5.297 7.69-10.452 11.875-15.464l38.418 32.24.643-.766-38.418-32.244c4.127-4.9 8.468-9.66 13.03-14.26l13.133 12.926.7-.713-13.136-12.93.027-.03c4.633-4.633 9.436-9.034 14.377-13.226l32.28 38.474.765-.643-32.28-38.474c4.93-4.145 10-8.08 15.207-11.78l10.72 15.055.814-.58-10.718-15.05c5.382-3.787 10.91-7.324 16.56-10.624l25.177 43.615.866-.5-25.18-43.62c5.535-3.2 11.188-6.17 16.953-8.896l7.967 16.734.903-.43-7.962-16.725c5.98-2.794 12.07-5.334 18.264-7.605l17.246 47.393.94-.342-17.25-47.402c5.962-2.158 12.024-4.057 18.162-5.72l4.93 17.83.964-.267-4.928-17.823c6.392-1.704 12.867-3.15 19.418-4.31l8.75 49.64.983-.173-8.748-49.63c6.194-1.067 12.453-1.884 18.764-2.456l1.75 18.336.996-.095-1.75-18.332c6.278-.542 12.606-.85 18.977-.89v45.355h3V14.142c5.97.036 11.902.3 17.793.776l-1.458 18.375.996.08 1.458-18.364c6.714.57 13.37 1.424 19.953 2.557l-8.753 49.644.984.175 8.756-49.654c6.16 1.088 12.25 2.427 18.27 3.996l-4.65 17.927.97.25 4.646-17.918c6.533 1.733 12.98 3.732 19.318 6.023l-17.263 47.428.94.342 17.26-47.42c5.82 2.134 11.55 4.506 17.182 7.1l-7.708 16.884.91.415 7.705-16.88c6.142 2.86 12.162 5.992 18.045 9.392L341.65 88.922l.865.5 25.2-43.65c5.31 3.1 10.51 6.415 15.584 9.945l-10.502 15.257.824.567 10.5-15.257c5.554 3.898 10.95 8.06 16.19 12.464l-32.317 38.515.766.643 32.317-38.514c4.653 3.944 9.178 8.083 13.56 12.42l-12.964 13.174.713.7 12.965-13.176.154.15c4.816 4.815 9.382 9.814 13.72 14.962l-38.468 32.278.643.766 38.47-32.28c3.93 4.704 7.666 9.535 11.19 14.49l-15.12 10.772.58.814 15.12-10.77c3.97 5.63 7.662 11.42 11.096 17.342L409.24 156.15l.5.865 43.5-25.116c3.035 5.285 5.86 10.677 8.46 16.17l-16.84 8.02.43.904 16.83-8.014c2.92 6.236 5.56 12.595 7.912 19.067l-47.145 17.16.342.94 47.144-17.16c2.046 5.706 3.858 11.5 5.452 17.367l-17.966 4.97.268.964 17.955-4.967c1.774 6.643 3.27 13.374 4.454 20.188l-49.257 8.685.174.984 49.244-8.683c1.01 5.95 1.788 11.96 2.34 18.018l-18.494 1.77.096.994 18.486-1.77c.563 6.504.878 13.06.904 19.66h-44.865v3h44.853z"/><path d="M256.505 71.006c1.27 2.222 1.905 5.378 1.905 9.468s-.635 7.24-1.905 9.45c-1.27 2.21-3.483 3.316-6.64 3.316s-5.37-1.105-6.64-3.315c-1.27-2.21-1.905-5.36-1.905-9.45 0-4.09.635-7.247 1.905-9.47s3.483-3.332 6.64-3.332 5.37 1.11 6.64 3.333zm-9.51 16.004c.466 1.51 1.423 2.265 2.87 2.265s2.395-.754 2.846-2.265c.45-1.51.676-3.688.676-6.537 0-2.985-.226-5.195-.675-6.63-.45-1.437-1.398-2.154-2.845-2.154-1.447 0-2.404.717-2.87 2.152-.468 1.436-.702 3.646-.702 6.63 0 2.85.234 5.03.7 6.538zM223.188 413.202v-3.315c1.534-.068 2.608-.17 3.222-.308.978-.217 1.773-.65 2.387-1.3.42-.444.74-1.036.955-1.777.125-.444.188-.774.188-.99h4.067v24.78h-4.99v-17.09h-5.83zM242.09 419.644c.63-1.127 1.55-1.977 2.76-2.546-1.2-.798-1.98-1.66-2.34-2.59-.36-.928-.54-1.796-.54-2.605 0-1.8.678-3.335 2.037-4.605 1.358-1.27 3.277-1.905 5.755-1.905s4.396.635 5.755 1.905c1.357 1.27 2.037 2.806 2.037 4.605 0 .81-.18 1.678-.537 2.606-.36.928-1.137 1.733-2.334 2.417 1.225.684 2.146 1.59 2.765 2.717.618 1.13.927 2.388.927 3.777 0 2.086-.772 3.86-2.317 5.324-1.546 1.464-3.704 2.196-6.475 2.196-2.77 0-4.87-.732-6.295-2.196-1.425-1.464-2.138-3.238-2.138-5.323 0-1.388.313-2.647.94-3.776zm5.066 6.29c.633.672 1.507 1.008 2.624 1.008 1.116 0 1.99-.336 2.623-1.01.633-.67.95-1.616.95-2.835 0-1.266-.323-2.225-.968-2.88-.643-.655-1.512-.983-2.605-.983s-1.963.328-2.606.983c-.644.655-.966 1.614-.966 2.88 0 1.22.316 2.164.948 2.836zm.31-11.28c.554.57 1.322.855 2.305.855.995 0 1.763-.286 2.306-.856.542-.568.813-1.304.813-2.204 0-.98-.272-1.745-.814-2.3-.543-.55-1.312-.828-2.305-.828-.982 0-1.75.277-2.304.83-.554.553-.83 1.318-.83 2.298 0 .9.276 1.635.83 2.204zM275.97 408.673c1.27 2.22 1.905 5.377 1.905 9.467 0 4.09-.636 7.24-1.905 9.45-1.27 2.212-3.484 3.316-6.64 3.316-3.156 0-5.37-1.104-6.64-3.315-1.27-2.21-1.905-5.36-1.905-9.45 0-4.09.635-7.246 1.905-9.467 1.27-2.223 3.483-3.333 6.64-3.333 3.155 0 5.37 1.11 6.64 3.333zm-9.51 16.004c.466 1.51 1.423 2.265 2.87 2.265 1.446 0 2.396-.755 2.846-2.265.45-1.51.675-3.688.675-6.537 0-2.984-.225-5.195-.674-6.63-.45-1.437-1.4-2.153-2.846-2.153-1.447 0-2.404.717-2.87 2.152-.47 1.435-.702 3.645-.702 6.63 0 2.85.233 5.027.7 6.537zM65 255.42c.695-1.65 2.335-3.4 4.922-5.246 2.244-1.606 3.697-2.757 4.358-3.452 1.014-1.082 1.52-2.267 1.52-3.555 0-1.048-.29-1.92-.87-2.615-.582-.695-1.414-1.042-2.496-1.042-1.48 0-2.49.553-3.025 1.658-.31.638-.49 1.652-.548 3.042h-4.734c.08-2.107.462-3.81 1.146-5.11 1.3-2.472 3.61-3.708 6.93-3.708 2.622 0 4.71.726 6.26 2.18 1.55 1.45 2.327 3.374 2.327 5.767 0 1.833-.547 3.463-1.643 4.887-.72.946-1.9 2-3.544 3.162l-1.952 1.383c-1.22.866-2.056 1.493-2.506 1.88-.45.388-.83.838-1.137 1.35h10.818v4.29h-16.97c.045-1.78.427-3.403 1.145-4.872zM100.683 239.647c-.73.718-1.747 1.997-3.048 3.837s-2.39 3.74-3.27 5.7c-.697 1.537-1.325 3.417-1.884 5.64s-.838 4.044-.838 5.468h-5.06c.15-4.443 1.61-9.063 4.38-13.86 1.79-2.974 3.29-5.047 4.498-6.22H83.115l.068-4.376h17.5v3.81zM117.97 238.673c1.27 2.222 1.905 5.378 1.905 9.468s-.636 7.242-1.905 9.452c-1.27 2.21-3.484 3.315-6.64 3.315-3.156 0-5.37-1.104-6.64-3.315-1.27-2.21-1.905-5.36-1.905-9.45 0-4.09.635-7.247 1.905-9.47s3.483-3.332 6.64-3.332c3.155 0 5.37 1.11 6.64 3.333zm-9.51 16.004c.466 1.51 1.423 2.265 2.87 2.265 1.446 0 2.396-.755 2.846-2.265.45-1.51.675-3.688.675-6.537 0-2.985-.225-5.195-.674-6.63-.45-1.437-1.4-2.154-2.846-2.154-1.447 0-2.404.718-2.87 2.153-.47 1.435-.702 3.645-.702 6.63 0 2.85.233 5.027.7 6.537zM400.334 237.776c1.533-1.646 3.523-2.47 5.974-2.47 3.77 0 6.357 1.67 7.76 5.007.796 1.892 1.195 4.38 1.195 7.468 0 2.998-.382 5.498-1.146 7.504-1.458 3.816-4.135 5.725-8.03 5.725-1.858 0-3.528-.55-5.01-1.65-1.48-1.1-2.33-2.702-2.546-4.81h4.855c.114.728.422 1.32.924 1.776.5.456 1.166.684 1.998.684 1.606 0 2.734-.89 3.384-2.666.354-.98.575-2.41.666-4.29-.443.56-.917.986-1.418 1.282-.912.547-2.033.82-3.367.82-1.97 0-3.72-.68-5.246-2.042-1.527-1.36-2.29-3.324-2.29-5.888 0-2.653.766-4.804 2.297-6.45zm8.195 9.835c1.104-.705 1.657-1.93 1.657-3.673 0-1.4-.328-2.512-.982-3.333-.656-.82-1.553-1.23-2.692-1.23-.832 0-1.544.234-2.136.7-.936.73-1.402 1.966-1.402 3.71 0 1.47.3 2.57.898 3.306.598.735 1.518 1.103 2.76 1.103.672 0 1.304-.194 1.896-.582zM432.737 238.673c1.27 2.222 1.905 5.378 1.905 9.468s-.636 7.242-1.905 9.452c-1.27 2.21-3.484 3.315-6.64 3.315-3.156 0-5.37-1.104-6.64-3.315-1.27-2.21-1.905-5.36-1.905-9.45 0-4.09.635-7.247 1.905-9.47s3.483-3.332 6.64-3.332c3.156 0 5.37 1.11 6.64 3.333zm-9.51 16.004c.467 1.51 1.424 2.265 2.87 2.265 1.447 0 2.397-.755 2.847-2.265.45-1.51.675-3.688.675-6.537 0-2.985-.227-5.195-.676-6.63-.45-1.437-1.4-2.154-2.846-2.154-1.447 0-2.404.718-2.87 2.153s-.702 3.645-.702 6.63c0 2.85.234 5.027.7 6.537zM329.974 115.01c.61.356 1.176.552 1.69.59.95.063 1.706-.385 2.265-1.347.343-.59.438-1.22.29-1.895-.15-.674-.604-1.232-1.364-1.673-1.007-.585-1.915-.57-2.726.048-.46.352-.98 1.027-1.557 2.023l-2.153-1.252c.554-.983.854-1.718.9-2.206.093-.838-.31-1.52-1.212-2.042-.584-.34-1.158-.445-1.72-.318-.565.128-1.026.5-1.386 1.118-.412.71-.49 1.36-.233 1.956s.764 1.105 1.525 1.528l-1.633 2.807c-.743-.47-1.39-1.02-1.937-1.648-.454-.595-.782-1.302-.982-2.124-.13-.602-.133-1.23-.01-1.88.126-.65.418-1.37.876-2.158.85-1.462 1.91-2.42 3.188-2.877 1.277-.455 2.554-.313 3.826.427.9.523 1.506 1.233 1.814 2.127.19.563.25 1.068.178 1.515.16-.275.624-.532 1.395-.772 1.156-.354 2.35-.173 3.58.543 1.296.754 2.173 1.864 2.634 3.33.46 1.467.18 3.08-.842 4.836-1.26 2.165-2.84 3.258-4.744 3.28-1.01.005-2.14-.322-3.385-.98l1.72-2.956zM332.103 91.432c1.828.014 4.006.754 6.53 2.223s4.243 2.992 5.152 4.57c.91 1.578.796 3.34-.337 5.29s-2.61 2.918-4.43 2.91c-1.822-.01-3.994-.748-6.52-2.217-2.527-1.468-4.248-2.993-5.163-4.576s-.808-3.347.325-5.296 2.615-2.917 4.443-2.904zm6.468 11.62c1.1.252 1.91-.067 2.43-.96s.395-1.75-.376-2.57c-.77-.82-2.035-1.742-3.794-2.765-1.843-1.072-3.29-1.727-4.337-1.964-1.05-.237-1.832.09-2.352.984s-.42 1.742.3 2.545c.72.804 2 1.742 3.844 2.814 1.758 1.024 3.188 1.662 4.287 1.915zM386.295 163.462c-.142-.247-.393-.464-.754-.65-.6-.295-1.228-.254-1.884.123-.98.563-1.364 1.514-1.15 2.854.123.736.48 1.72 1.077 2.956.12-.66.367-1.233.744-1.72.376-.49.883-.915 1.52-1.28 1.36-.78 2.743-.958 4.145-.533s2.517 1.357 3.342 2.798c.822 1.435 1.12 2.943.893 4.527-.228 1.584-1.24 2.892-3.04 3.924-1.936 1.11-3.825 1.12-5.67.03-1.438-.855-2.73-2.282-3.874-4.28-.672-1.172-1.17-2.153-1.49-2.944-.574-1.407-.855-2.69-.844-3.85.012-.993.243-1.918.694-2.777.45-.86 1.17-1.572 2.158-2.14 1.426-.816 2.77-1.103 4.038-.857 1.266.244 2.3.944 3.103 2.097l-3.008 1.722zm1.38 10.705c.745.267 1.46.205 2.145-.188.67-.385 1.054-.94 1.148-1.666.097-.726-.087-1.49-.548-2.295-.514-.897-1.127-1.46-1.838-1.685-.71-.225-1.385-.156-2.02.208-.516.295-.882.712-1.1 1.25-.33.798-.2 1.71.387 2.733.472.827 1.082 1.373 1.826 1.64zM399.398 153.417c1.576.926 3.09 2.655 4.544 5.19 1.453 2.534 2.18 4.712 2.177 6.533-.003 1.82-.98 3.292-2.938 4.413s-3.72 1.223-5.292.304-3.085-2.645-4.538-5.18-2.18-4.715-2.183-6.543c-.004-1.828.974-3.302 2.93-4.423 1.956-1.12 3.72-1.217 5.298-.293zm-.208 13.297c.825.77 1.687.896 2.583.383s1.217-1.318.96-2.414c-.258-1.095-.893-2.525-1.904-4.29-1.062-1.85-1.986-3.14-2.775-3.87-.79-.73-1.632-.837-2.528-.323-.896.515-1.234 1.3-1.015 2.354.22 1.056.86 2.51 1.922 4.358 1.01 1.765 1.93 3.033 2.756 3.802zM373.442 314.86l1.19-2.047c.972.508 1.672.83 2.1.967.682.217 1.328.234 1.94.055.42-.124.828-.375 1.228-.755.237-.23.394-.41.472-.545l2.512 1.46-8.897 15.302-3.08-1.792 6.135-10.553-3.6-2.092zM380.96 329.327c1.02-.77 2.662-1.262 4.923-1.473 1.962-.188 3.27-.376 3.93-.567 1.015-.305 1.753-.854 2.215-1.65.377-.645.51-1.288.4-1.927-.11-.637-.498-1.15-1.166-1.54-.914-.53-1.735-.552-2.463-.06-.42.282-.897.843-1.43 1.68l-2.924-1.698c.806-1.272 1.653-2.188 2.542-2.744 1.69-1.06 3.56-.994 5.61.198 1.62.94 2.647 2.14 3.084 3.593.436 1.454.225 2.92-.635 4.396-.658 1.133-1.582 1.942-2.77 2.428-.784.325-1.892.552-3.323.68l-1.703.154c-1.063.097-1.805.184-2.222.26-.417.08-.812.22-1.187.427l6.682 3.883-1.54 2.65-10.48-6.094c.668-1.083 1.486-1.948 2.457-2.597zM407.66 331.012c-.012 1.828-.753 4.006-2.22 6.53-1.47 2.527-2.993 4.243-4.57 5.152s-3.343.797-5.29-.336-2.92-2.61-2.91-4.43c.01-1.822.747-3.995 2.216-6.52 1.47-2.527 2.993-4.248 4.576-5.164 1.582-.915 3.348-.807 5.296.326 1.95 1.135 2.917 2.615 2.903 4.442zm-11.618 6.47c-.253 1.1.067 1.91.96 2.43.895.52 1.75.394 2.57-.378s1.74-2.035 2.764-3.794c1.072-1.843 1.727-3.29 1.964-4.337.237-1.048-.09-1.832-.983-2.352-.894-.52-1.742-.42-2.547.3-.804.72-1.74 2-2.812 3.844-1.023 1.76-1.662 3.187-1.916 4.288zM323.565 367.746l2.055-1.178c.588.927 1.032 1.556 1.335 1.888.48.528 1.033.868 1.652 1.017.426.104.905.09 1.44-.04.32-.08.548-.158.682-.235l1.444 2.52-15.355 8.805-1.774-3.092 10.59-6.07-2.07-3.614zM325.19 385.6c-.59.495-.964 1.015-1.127 1.558-.162.542-.058 1.138.313 1.785.428.747 1.018 1.165 1.768 1.254.75.09 1.523-.094 2.322-.552.783-.45 1.34-1.012 1.67-1.688s.272-1.4-.17-2.176c-.21-.365-.44-.656-.684-.87-.44-.376-.96-.552-1.555-.528l-1.424-2.778 9.1-3.786 4.844 8.45-2.562 1.468-3.596-6.27-3.673 1.374c.57.292.98.54 1.23.743.412.345.8.83 1.158 1.457.728 1.27.935 2.62.622 4.056s-1.283 2.62-2.915 3.555c-1.42.814-2.947 1.086-4.584.815-1.638-.27-2.976-1.312-4.015-3.124-.837-1.46-1.133-2.883-.887-4.27.246-1.387 1.06-2.546 2.438-3.478l1.725 3.007zM345.123 398.845c-.925 1.576-2.654 3.09-5.19 4.544s-4.712 2.178-6.532 2.176c-1.82-.002-3.29-.98-4.412-2.937-1.12-1.956-1.223-3.72-.305-5.293.92-1.572 2.645-3.085 5.18-4.538 2.534-1.454 4.716-2.182 6.544-2.184 1.828-.003 3.303.975 4.424 2.93 1.12 1.956 1.22 3.722.293 5.3zm-13.296-.208c-.77.826-.896 1.687-.383 2.583s1.318 1.217 2.413.96c1.096-.26 2.525-.893 4.29-1.904 1.85-1.06 3.14-1.985 3.87-2.774s.838-1.632.324-2.528c-.514-.896-1.298-1.234-2.354-1.015-1.055.22-2.508.86-4.357 1.922-1.766 1.01-3.033 1.93-3.803 2.755zM243.69 96.844h2.52l7.868 12.75v-12.75h2.04v15.78h-2.4l-7.986-12.735v12.734h-2.04v-15.78zM245.694 393.2c.048.895.252 1.622.61 2.18.683 1.046 1.887 1.57 3.61 1.57.774 0 1.478-.116 2.112-.345 1.23-.444 1.842-1.24 1.842-2.385 0-.86-.26-1.473-.78-1.838-.527-.357-1.353-.67-2.477-.934l-2.07-.484c-1.353-.314-2.31-.662-2.872-1.04-.972-.66-1.457-1.646-1.457-2.956 0-1.418.48-2.58 1.433-3.49.955-.91 2.307-1.365 4.056-1.365 1.608 0 2.977.4 4.102 1.198 1.125.8 1.688 2.076 1.688 3.83h-2.01c-.103-.844-.32-1.492-.658-1.943-.625-.824-1.686-1.236-3.182-1.236-1.208 0-2.077.267-2.606.796-.53.53-.793 1.146-.793 1.848 0 .773.313 1.34.938 1.697.41.23 1.336.517 2.78.86l2.143.506c1.035.243 1.833.576 2.396.998.97.738 1.457 1.81 1.457 3.213 0 1.747-.62 2.996-1.86 3.748s-2.68 1.13-4.32 1.13c-1.915 0-3.413-.503-4.495-1.505-1.083-.996-1.614-2.346-1.592-4.05h2.008zM358.502 240.51h11.45v1.934h-9.366v4.79h8.658v1.827h-8.658v5.35h9.528v1.88h-11.612v-15.78zM126.967 240.51l2.975 12.82 3.567-12.82h2.31l3.575 12.845 2.975-12.845h2.343l-4.146 15.78h-2.245l-3.642-13.084-3.663 13.084h-2.245l-4.125-15.78h2.32zM164.923 405.29c-.766-1.024-1.25-2.668-1.45-4.93-.177-1.962-.36-3.273-.548-3.932-.3-1.017-.846-1.757-1.64-2.224-.645-.38-1.286-.516-1.925-.41s-1.154.494-1.545 1.16c-.537.912-.56 1.733-.074 2.463.282.42.84.9 1.677 1.438l-1.713 2.915c-1.27-.812-2.18-1.663-2.732-2.555-1.052-1.694-.98-3.564.223-5.608.95-1.615 2.152-2.638 3.607-3.067 1.457-.43 2.922-.212 4.395.654 1.13.664 1.936 1.59 2.416 2.78.322.785.543 1.895.664 3.327l.146 1.704c.09 1.065.174 1.808.25 2.225s.216.812.42 1.187l3.915-6.662 2.642 1.552-6.14 10.45c-1.08-.67-1.94-1.493-2.587-2.466zM164.51 388.765l-2.042-1.2c.514-.968.84-1.667.977-2.095.22-.68.242-1.326.064-1.94-.123-.42-.372-.83-.75-1.23-.23-.237-.41-.396-.544-.474l1.473-2.505 15.26 8.968-1.806 3.073-10.525-6.184-2.11 3.59zM173.777 366.61c1.828.02 4.002.77 6.52 2.252 2.52 1.48 4.23 3.012 5.13 4.594.902 1.58.78 3.345-.36 5.288-1.142 1.943-2.622 2.906-4.443 2.89s-3.99-.767-6.51-2.247c-2.52-1.48-4.233-3.014-5.142-4.6s-.79-3.352.35-5.295 2.628-2.905 4.455-2.883zm6.416 11.647c1.1.258 1.91-.058 2.434-.948s.4-1.75-.365-2.572c-.768-.824-2.027-1.75-3.78-2.782-1.84-1.08-3.282-1.74-4.33-1.983s-1.83.082-2.354.973-.428 1.74.287 2.548 1.992 1.75 3.83 2.83c1.752 1.03 3.178 1.676 4.278 1.933zM97.632 341.846c-.15-1.27.252-2.936 1.21-4.994.827-1.79 1.325-3.016 1.49-3.68.25-1.03.146-1.945-.308-2.745-.37-.65-.857-1.09-1.463-1.317-.604-.228-1.245-.15-1.917.23-.92.522-1.352 1.222-1.295 2.097.033.505.277 1.2.732 2.083l-2.94 1.668c-.694-1.338-1.058-2.53-1.09-3.58-.063-1.993.936-3.575 2.998-4.744 1.63-.925 3.183-1.208 4.657-.853 1.476.356 2.636 1.278 3.48 2.765.645 1.14.88 2.346.7 3.615-.113.842-.476 1.913-1.088 3.214l-.725 1.548c-.454.97-.752 1.652-.896 2.052-.143.4-.22.812-.23 1.24l6.722-3.813 1.512 2.666-10.544 5.98c-.598-1.12-.932-2.264-1.004-3.43zM119.544 329.04l-1.74.987 1.878 3.312-2.962 1.68-1.88-3.313-6.095 3.457-1.5-2.645.36-12.554 3.397-1.928 5.457 9.62 1.74-.987 1.344 2.37zm-6.047.3l-3.762-6.633-.08 8.812 3.842-2.18zM124.64 312.774c1.572.933 3.08 2.67 4.52 5.21 1.443 2.543 2.158 4.724 2.147 6.544-.01 1.82-.996 3.288-2.956 4.4-1.96 1.11-3.725 1.205-5.293.28-1.568-.926-3.073-2.66-4.515-5.2s-2.158-4.727-2.152-6.555.99-3.3 2.95-4.41c1.96-1.112 3.727-1.202 5.3-.27zm-.268 13.296c.822.772 1.683.904 2.58.395.9-.51 1.223-1.313.97-2.41-.25-1.096-.88-2.53-1.883-4.3-1.053-1.853-1.973-3.147-2.758-3.88s-1.627-.846-2.526-.336c-.898.51-1.24 1.292-1.024 2.35.215 1.056.85 2.51 1.9 4.365 1.005 1.77 1.917 3.04 2.74 3.815z"/><g><path d="M95.502 162.83c-.358.608-.557 1.17-.597 1.687-.068.95.377 1.707 1.336 2.27.59.347 1.22.446 1.895.3s1.234-.6 1.68-1.357c.59-1.003.578-1.91-.036-2.725-.352-.46-1.023-.982-2.017-1.566l1.26-2.147c.98.557 1.716.86 2.203.91.837.096 1.52-.305 2.048-1.203.342-.582.45-1.156.325-1.72-.126-.564-.496-1.028-1.112-1.39-.707-.415-1.358-.496-1.954-.242-.596.254-1.108.76-1.535 1.52l-2.8-1.646c.473-.74 1.025-1.384 1.656-1.93.596-.45 1.305-.776 2.127-.972.603-.127 1.23-.128 1.88 0 .65.127 1.37.422 2.154.883 1.458.857 2.412 1.926 2.863 3.205.45 1.28.302 2.555-.444 3.824-.528.898-1.24 1.5-2.135 1.803-.563.188-1.07.245-1.516.17.273.162.528.628.764 1.398.348 1.158.162 2.352-.56 3.58-.758 1.29-1.872 2.162-3.34 2.616-1.47.453-3.08.164-4.832-.865-2.16-1.27-3.245-2.855-3.258-4.76 0-1.01.33-2.137.996-3.38l2.948 1.734zM119.07 165.066c-.02 1.828-.772 4.002-2.252 6.52-1.48 2.52-3.012 4.23-4.594 5.132-1.583.9-3.346.78-5.29-.36s-2.905-2.624-2.888-4.444c.018-1.822.766-3.99 2.246-6.51 1.48-2.52 3.014-4.233 4.6-5.142 1.586-.91 3.35-.792 5.294.35 1.945 1.142 2.906 2.627 2.884 4.454zm-11.648 6.415c-.26 1.1.058 1.91.948 2.435.892.523 1.75.402 2.572-.365.823-.766 1.75-2.027 2.78-3.78 1.08-1.84 1.742-3.28 1.984-4.33.243-1.046-.082-1.83-.973-2.354s-1.74-.428-2.547.287c-.807.715-1.75 1.992-2.83 3.83-1.03 1.753-1.675 3.18-1.934 4.278zM131.058 172.11c-.02 1.828-.772 4.002-2.252 6.52-1.48 2.52-3.012 4.23-4.594 5.13-1.582.903-3.345.782-5.288-.36s-2.907-2.622-2.89-4.443c.018-1.82.767-3.99 2.247-6.51 1.48-2.52 3.014-4.232 4.6-5.14 1.587-.91 3.352-.793 5.295.35 1.943 1.14 2.905 2.625 2.883 4.453zm-11.65 6.415c-.257 1.1.06 1.91.95 2.434s1.748.4 2.57-.366 1.75-2.026 2.782-3.78c1.08-1.84 1.74-3.28 1.983-4.33.243-1.046-.082-1.83-.973-2.354s-1.74-.428-2.547.287c-.808.716-1.75 1.992-2.83 3.83-1.03 1.754-1.675 3.18-1.934 4.278z"/></g><g><path d="M158.742 97.156c-.616.35-1.07.737-1.36 1.164-.536.79-.53 1.667.02 2.635.336.593.833.995 1.49 1.205.658.21 1.37.1 2.134-.334 1.012-.574 1.456-1.367 1.332-2.38-.073-.573-.394-1.36-.962-2.363l2.166-1.23c.57.974 1.054 1.605 1.45 1.892.68.502 1.47.495 2.376-.02.587-.332.968-.775 1.143-1.326.174-.552.085-1.138-.267-1.76-.404-.713-.93-1.108-1.57-1.187-.645-.078-1.34.104-2.09.548L163 91.178c.78-.406 1.582-.687 2.4-.843.742-.093 1.518-.02 2.33.222.585.19 1.127.504 1.627.94s.975 1.05 1.424 1.842c.835 1.47 1.127 2.873.878 4.206-.25 1.334-1.015 2.364-2.296 3.09-.906.515-1.824.68-2.75.494-.583-.12-1.05-.322-1.4-.61.158.276.146.808-.036 1.593-.277 1.18-1.035 2.118-2.273 2.82-1.303.74-2.704.938-4.202.597-1.498-.342-2.75-1.396-3.75-3.164-1.237-2.18-1.383-4.095-.442-5.75.505-.876 1.354-1.686 2.552-2.43l1.682 2.973zM165.602 109.25c-.615.35-1.07.737-1.36 1.164-.535.79-.528 1.667.02 2.635.337.592.834.994 1.492 1.204.657.21 1.368.1 2.133-.334 1.012-.574 1.456-1.367 1.33-2.378-.072-.575-.393-1.363-.96-2.365l2.165-1.23c.57.974 1.054 1.605 1.45 1.892.678.5 1.47.494 2.376-.02.587-.333.968-.775 1.143-1.326.174-.552.085-1.138-.267-1.76-.405-.713-.93-1.108-1.572-1.187-.643-.078-1.34.104-2.088.548l-1.603-2.824c.78-.405 1.58-.686 2.398-.842.742-.093 1.52-.02 2.33.222.585.19 1.127.505 1.627.94.5.437.976 1.05 1.424 1.842.833 1.472 1.125 2.873.876 4.207-.25 1.332-1.015 2.362-2.296 3.09-.906.513-1.824.677-2.75.492-.583-.118-1.05-.322-1.4-.61.157.276.144.808-.037 1.593-.278 1.178-1.036 2.118-2.274 2.82-1.304.74-2.704.937-4.203.596-1.5-.34-2.75-1.395-3.752-3.163-1.236-2.18-1.383-4.095-.44-5.75.504-.876 1.354-1.686 2.55-2.43l1.687 2.973zM184.893 122.972c-.933 1.572-2.67 3.08-5.21 4.52-2.542 1.442-4.723 2.158-6.543 2.147-1.82-.01-3.288-.997-4.4-2.957-1.11-1.96-1.205-3.726-.278-5.294.925-1.57 2.658-3.073 5.2-4.515 2.54-1.44 4.726-2.16 6.554-2.153 1.828.007 3.298.99 4.41 2.95 1.11 1.96 1.2 3.73.267 5.3zm-13.295-.268c-.773.822-.905 1.684-.395 2.582s1.313 1.223 2.41.97c1.096-.253 2.53-.88 4.298-1.884 1.855-1.052 3.15-1.97 3.883-2.757.733-.785.845-1.628.335-2.526s-1.293-1.24-2.35-1.026c-1.057.216-2.513.85-4.367 1.902-1.767 1.003-3.04 1.915-3.812 2.738z"/></g><path d="M250.042 794.625c-5.24 0-9.5-4.262-9.5-9.5s4.262-9.5 9.5-9.5 9.5 4.262 9.5 9.5-4.26 9.5-9.5 9.5zm0-17c-4.136 0-7.5 3.365-7.5 7.5 0 4.136 3.365 7.5 7.5 7.5 4.136 0 7.5-3.364 7.5-7.5 0-4.135-3.363-7.5-7.5-7.5z"/><g><path d="M148.376 784.625h89.666v1h-89.666zM262.043 784.625h89.666v1h-89.667zM249.542 773.125h1l.01-112.985 3.598 2.36L250 652l-4.15 10.5 3.703-2.37M250.542 905.53V797.124h-1v108.31l-4.01 4.377h.002-.003l-.01 6.563 4.418-3.104 4.52 3.147.01-6.604"/></g><path d="M489.03 784.166c-.248-63.48-25.075-123.125-69.99-168.04-44.797-44.796-104.246-69.607-167.54-69.983v-2.31h-3v2.31c-63.263.398-122.68 25.207-167.457 69.984-44.914 44.914-69.74 104.557-69.99 168.037H8.167v3h2.9c.524 63.076 25.317 122.3 69.977 166.96 44.777 44.776 104.194 69.585 167.457 69.982v3.392h3v-3.39c63.295-.377 122.744-25.19 167.54-69.985 44.66-44.658 69.452-103.882 69.978-166.957h2.814v-3h-2.802zm-5.012 3c-.05 5.75-.305 11.466-.763 17.142l-18.546-1.472-.08.996 18.535 1.47c-.585 6.902-1.473 13.74-2.65 20.503l-49.06-8.65-.175.984 49.07 8.65c-1.07 5.982-2.375 11.9-3.898 17.75l-18.102-4.692-.252.97 18.093 4.69c-1.767 6.668-3.813 13.247-6.16 19.71l-46.8-17.033-.343.94 46.79 17.03c-2.1 5.697-4.426 11.307-6.967 16.822l-17.05-7.784-.416.91 17.046 7.782c-2.897 6.22-6.072 12.317-9.522 18.272l-43.026-24.842-.5.865 43.02 24.84c-3.065 5.24-6.342 10.37-9.828 15.382l-15.407-10.604-.566.824 15.406 10.604c-3.918 5.58-8.1 11.005-12.53 16.268l-37.934-31.832-.643.766 37.93 31.83c-3.932 4.634-8.056 9.14-12.378 13.504l-13.3-13.087-.7.713 13.302 13.09c-.036.036-.07.073-.108.11-4.814 4.814-9.812 9.38-14.958 13.716l-31.783-37.88-.766.642 31.784 37.883c-4.73 3.95-9.584 7.705-14.567 11.246l-10.865-15.255-.814.58 10.864 15.254c-5.57 3.922-11.294 7.576-17.15 10.976l-24.733-42.842-.866.5 24.736 42.847c-5.357 3.08-10.827 5.94-16.4 8.575l-8.077-16.968-.902.43 8.074 16.957c-6.122 2.86-12.36 5.46-18.71 7.772l-16.912-46.468-.94.342 16.914 46.47c-5.833 2.097-11.758 3.95-17.756 5.576l-5-18.08-.963.266 4.997 18.072c-6.473 1.726-13.03 3.186-19.668 4.352l-8.57-48.604-.984.174 8.568 48.592c-6.127 1.05-12.317 1.854-18.56 2.418l-1.774-18.587-.996.096 1.774 18.583c-6.286.54-12.622.847-19 .886v-44.276h-3v44.274c-5.977-.038-11.917-.305-17.813-.784l1.48-18.612-.997-.08-1.48 18.602c-6.643-.568-13.23-1.414-19.745-2.532l8.566-48.578-.984-.174-8.568 48.588c-6.24-1.098-12.413-2.454-18.51-4.048l4.705-18.135-.968-.252-4.704 18.128c-6.392-1.698-12.702-3.656-18.907-5.89l16.903-46.44-.94-.343-16.902 46.44c-5.97-2.18-11.845-4.613-17.617-7.278l7.788-17.055-.908-.416-7.786 17.05c-5.944-2.774-11.776-5.8-17.48-9.08l24.717-42.81-.866-.5-24.712 42.804c-5.51-3.2-10.902-6.636-16.16-10.3l10.59-15.385-.822-.567-10.59 15.385c-5.323-3.744-10.503-7.73-15.537-11.94l31.75-37.838-.765-.643-31.75 37.837c-4.88-4.116-9.623-8.443-14.206-12.99l13.048-13.257-.713-.7-13.05 13.26c-4.627-4.628-9.022-9.424-13.208-14.358l37.884-31.787-.643-.766-37.886 31.788c-4.167-4.954-8.123-10.048-11.837-15.284l15.186-10.814-.58-.814-15.18 10.81c-3.74-5.32-7.238-10.782-10.503-16.365l42.958-24.8-.5-.865-42.963 24.804c-3.247-5.608-6.254-11.34-9.013-17.183l16.86-8.026-.43-.902-16.85 8.022c-2.737-5.863-5.23-11.835-7.465-17.907l46.713-17-.342-.94-46.723 17.005c-2.21-6.088-4.15-12.278-5.847-18.548l17.945-4.963-.267-.963-17.938 4.962c-1.655-6.225-3.067-12.526-4.206-18.902l48.986-8.636-.174-.984-48.977 8.634c-1.11-6.37-1.956-12.81-2.54-19.303l18.43-1.76-.095-.996-18.427 1.76c-.52-6.063-.817-12.174-.87-18.324l44.766.002v-3l-44.78-.002c.026-6.194.3-12.35.8-18.46l18.44 1.466.08-.997-18.433-1.465c.555-6.46 1.37-12.863 2.444-19.2l49.16 8.67.175-.984-49.174-8.672c1.116-6.416 2.505-12.76 4.144-19.023l17.964 4.66.25-.97-17.957-4.657c1.666-6.258 3.578-12.438 5.755-18.518l47.068 17.135.342-.94-47.068-17.134c2.213-6.094 4.69-12.087 7.41-17.974l16.89 7.712.414-.91-16.888-7.71c2.74-5.867 5.722-11.623 8.954-17.255l43.435 25.08.5-.866-43.43-25.077c3.232-5.58 6.703-11.036 10.41-16.355l15.237 10.488.567-.823-15.237-10.488c3.725-5.297 7.69-10.453 11.875-15.465l38.418 32.24.643-.766-38.416-32.237c4.127-4.9 8.468-9.66 13.03-14.26L96.99 633.34l.7-.714-13.136-12.93.027-.027c4.635-4.635 9.438-9.036 14.38-13.228l32.278 38.474.766-.643-32.28-38.476c4.93-4.146 9.998-8.082 15.206-11.78l10.72 15.054.815-.58-10.718-15.05c5.382-3.786 10.91-7.322 16.56-10.623l25.177 43.614.866-.5-25.18-43.62c5.536-3.2 11.19-6.17 16.954-8.895l7.967 16.735.904-.43-7.962-16.725c5.978-2.794 12.068-5.333 18.263-7.604l17.246 47.394.94-.342-17.25-47.402c5.963-2.157 12.025-4.057 18.163-5.72l4.93 17.83.964-.267-4.928-17.823c6.39-1.703 12.866-3.15 19.417-4.31l8.75 49.64.983-.173-8.747-49.63c6.194-1.068 12.453-1.886 18.764-2.457l1.75 18.336.996-.095-1.75-18.33c6.278-.543 12.606-.85 18.977-.892V596.5h3v-45.357c5.97.036 11.903.3 17.794.775l-1.458 18.375.996.08 1.457-18.363c6.713.57 13.368 1.425 19.952 2.558l-8.754 49.644.984.174 8.755-49.654c6.16 1.087 12.25 2.426 18.27 3.995l-4.65 17.927.97.25 4.646-17.918c6.533 1.732 12.98 3.732 19.318 6.023l-17.262 47.427.94.342 17.26-47.42c5.82 2.133 11.55 4.505 17.182 7.1l-7.707 16.884.91.415 7.705-16.88c6.142 2.86 12.162 5.99 18.045 9.392l-25.203 43.654.865.5 25.2-43.65c5.31 3.1 10.51 6.415 15.584 9.945l-10.502 15.258.824.567 10.5-15.257c5.554 3.898 10.95 8.06 16.19 12.464l-32.317 38.516.766.643 32.317-38.513c4.653 3.944 9.178 8.083 13.56 12.42l-12.964 13.174.713.702 12.965-13.177.154.15c4.816 4.815 9.382 9.813 13.72 14.962l-38.468 32.278.643.766 38.47-32.28c3.93 4.706 7.666 9.536 11.19 14.493l-15.12 10.77.58.814 15.12-10.77c3.97 5.63 7.662 11.42 11.096 17.343l-43.495 25.113.5.865 43.5-25.115c3.035 5.285 5.86 10.678 8.46 16.172l-16.84 8.02.43.903 16.83-8.015c2.92 6.236 5.56 12.596 7.912 19.067l-47.145 17.16.342.94 47.144-17.16c2.046 5.706 3.858 11.5 5.452 17.367l-17.966 4.97.268.964 17.955-4.966c1.774 6.64 3.27 13.373 4.454 20.186l-49.257 8.686.174.984 49.244-8.684c1.01 5.95 1.788 11.96 2.34 18.018l-18.494 1.77.096.995 18.486-1.77c.563 6.503.878 13.058.904 19.658h-44.865v3h44.853z"/><text transform="translate(240.227 629.625)" font-family="'Helvetica-Bold'" font-size="35">0</text><text transform="translate(220.76 967.292)" font-family="'Helvetica-Bold'" font-size="35">180</text><text transform="translate(62.76 797.292)" font-family="'Helvetica-Bold'" font-size="35">270</text><text transform="translate(396.994 797.292)" font-family="'Helvetica-Bold'" font-size="35">90</text><text transform="rotate(-60 738.38 40.08)" font-family="'Helvetica-Bold'" font-size="25">30</text><text transform="rotate(-30 1537.56 -364.3)" font-family="'Helvetica-Bold'" font-size="25">60</text><text transform="rotate(30 -1415.094 1109.34)" font-family="'Helvetica-Bold'" font-size="25">120</text><text transform="rotate(60 -628.716 724.04)" font-family="'Helvetica-Bold'" font-size="25">150</text><g font-family="'Helvetica'" font-size="22"><text transform="translate(242.015 649.625)">N</text><text transform="translate(242.622 935.29)">S</text><text transform="translate(356.622 793.29)">E</text><text transform="translate(124.243 793.29)">W</text></g><text transform="rotate(-60 909.582 326.693)" font-family="'Helvetica-Bold'" font-size="25">210</text><text transform="rotate(-30 1721.455 255.728)" font-family="'Helvetica-Bold'" font-size="25">240</text><text transform="rotate(30 -1246.453 515.193)" font-family="'Helvetica-Bold'" font-size="25">300</text><text transform="rotate(60 -467.658 447.14)" font-family="'Helvetica-Bold'" font-size="25">330</text></svg>